<?xml version="1.0" standalone="no"?><!DOCTYPE svg PUBLIC "-//W3C//DTD SVG 1.1//EN" "http://www.w3.org/Graphics/SVG/1.1/DTD/svg11.dtd"><svg t="1709285560130" class="icon" viewBox="0 0 1024 1024" version="1.1" xmlns="http://www.w3.org/2000/svg" p-id="9346" xmlns:xlink="http://www.w3.org/1999/xlink" width="200" height="200"><path d="M896 768v64H576v-64h320zM512 480a382.464 382.464 0 0 1 200.896 56.64l13.376 8.64-35.776 53.12A318.528 318.528 0 0 0 512 544a320.064 320.064 0 0 0-317.248 278.208V832l-65.28-1.28A384 384 0 0 1 512 480z m384 160v64H576v-64h320zM512 128a160 160 0 1 1 0 320 160 160 0 0 1 0-320z m0 64a96 96 0 1 0 0 192 96 96 0 0 0 0-192z" p-id="9347" fill="#868e96"></path></svg>